<?xml version="1.0" encoding="UTF-8" standalone="no"?>
<svg width="158px" height="20px" viewBox="0 0 158 20" version="1.1" xmlns="http://www.w3.org/2000/svg" xmlns:xlink="http://www.w3.org/1999/xlink" xmlns:sketch="http://www.bohemiancoding.com/sketch/ns">
    <!-- Generator: Sketch 3.3.3 (12072) - http://www.bohemiancoding.com/sketch -->
    <title>Profit Button</title>
    <desc>Created with Sketch.</desc>
    <defs></defs>
    <g id="Page-1" stroke="none" stroke-width="1" fill="none" fill-rule="evenodd" sketch:type="MSPage">
        <g id="logo-pb" sketch:type="MSArtboardGroup" fill="#000000">
            <path d="M0.68,2.2 L0.68,19 L4.952,19 L4.952,14.272 L8,14.272 C12.296,14.272 14.768,11.992 14.768,8.056 C14.768,4.312 12.296,2.2 8,2.2 L0.68,2.2 Z M4.952,5.56 L7.784,5.56 C9.656,5.56 10.736,6.448 10.736,8.2 C10.736,9.976 9.656,10.912 7.784,10.912 L4.952,10.912 L4.952,5.56 Z M21.128,6.064 L16.976,6.064 L16.976,19 L21.128,19 L21.128,12.352 C21.344,10.528 22.928,9.4 25.328,9.616 L25.328,5.872 C23.48,5.896 22.016,6.736 21.128,8.248 L21.128,6.064 Z M33.224,5.92 C28.976,5.92 26.144,8.536 26.144,12.52 C26.144,16.504 28.976,19.144 33.224,19.144 C37.448,19.144 40.28,16.504 40.28,12.52 C40.28,8.536 37.448,5.92 33.224,5.92 L33.224,5.92 Z M33.224,9.208 C34.928,9.208 36.104,10.576 36.104,12.568 C36.104,14.584 34.928,15.928 33.224,15.928 C31.496,15.928 30.32,14.584 30.32,12.568 C30.32,10.576 31.496,9.208 33.224,9.208 L33.224,9.208 Z M53.696,4.552 C54.992,4.552 55.904,3.64 55.904,2.344 C55.904,1.072 54.992,0.16 53.696,0.16 C52.424,0.16 51.512,1.072 51.512,2.344 C51.512,3.64 52.424,4.552 53.696,4.552 L53.696,4.552 Z M43.112,6.52 L41.36,6.52 L41.36,9.256 L43.112,9.256 L43.112,19 L47.216,19 L47.216,9.256 L50.144,9.256 L50.144,6.52 L47.216,6.52 L47.216,5.704 C47.216,4.72 47.84,4.288 48.704,4.288 C49.232,4.288 49.88,4.48 50.432,4.792 L50.576,1.504 C49.904,1.192 48.944,1 48.056,1 C45.296,1 43.112,2.536 43.112,5.44 L43.112,6.52 Z M51.632,6.064 L51.632,19 L55.76,19 L55.76,6.064 L51.632,6.064 Z M66.608,15.424 C65.984,15.688 65.432,15.856 65,15.856 C64.232,15.88 63.8,15.448 63.8,14.44 L63.8,9.376 L67.184,9.376 L67.184,6.64 L63.8,6.64 L63.8,3.064 L59.672,3.064 L59.672,6.664 L57.872,6.664 L57.872,9.376 L59.672,9.376 L59.672,15.088 C59.672,17.776 61.472,19.192 63.968,19.192 C65.216,19.192 66.488,18.856 67.424,18.304 L66.608,15.424 Z M75.104,2.2 L75.104,19 L83.336,19 C87.296,19 89.792,17.2 89.792,14.344 C89.792,12.16 88.448,10.504 86.336,10.096 C88.112,9.592 89.216,8.176 89.216,6.4 C89.216,3.832 86.816,2.2 83.048,2.2 L75.104,2.2 Z M79.352,5.464 L82.808,5.464 C84.056,5.464 84.848,6.088 84.848,7.168 C84.848,8.248 84.056,8.92 82.808,8.92 L79.352,8.92 L79.352,5.464 Z M79.352,11.992 L82.808,11.992 C84.392,11.992 85.376,12.688 85.376,13.816 C85.376,15.016 84.392,15.712 82.808,15.712 L79.352,15.712 L79.352,11.992 Z M104.84,6.064 L100.688,6.064 L100.688,12.448 C100.688,14.2 99.752,15.496 98.168,15.52 C96.848,15.52 96.008,14.584 96.008,13.048 L96.008,6.064 L91.856,6.064 L91.856,14.224 C91.856,17.248 93.68,19.168 96.488,19.168 C98.36,19.168 99.8,18.4 100.688,16.864 L100.688,19 L104.84,19 L104.84,6.064 Z M115.688,15.424 C115.064,15.688 114.512,15.856 114.08,15.856 C113.312,15.88 112.88,15.448 112.88,14.44 L112.88,9.376 L116.264,9.376 L116.264,6.64 L112.88,6.64 L112.88,3.064 L108.752,3.064 L108.752,6.664 L106.952,6.664 L106.952,9.376 L108.752,9.376 L108.752,15.088 C108.752,17.776 110.552,19.192 113.048,19.192 C114.296,19.192 115.568,18.856 116.504,18.304 L115.688,15.424 Z M126.128,15.424 C125.504,15.688 124.952,15.856 124.52,15.856 C123.752,15.88 123.32,15.448 123.32,14.44 L123.32,9.376 L126.704,9.376 L126.704,6.64 L123.32,6.64 L123.32,3.064 L119.192,3.064 L119.192,6.664 L117.392,6.664 L117.392,9.376 L119.192,9.376 L119.192,15.088 C119.192,17.776 120.992,19.192 123.488,19.192 C124.736,19.192 126.008,18.856 126.944,18.304 L126.128,15.424 Z M134.96,5.92 C130.712,5.92 127.88,8.536 127.88,12.52 C127.88,16.504 130.712,19.144 134.96,19.144 C139.184,19.144 142.016,16.504 142.016,12.52 C142.016,8.536 139.184,5.92 134.96,5.92 L134.96,5.92 Z M134.96,9.208 C136.664,9.208 137.84,10.576 137.84,12.568 C137.84,14.584 136.664,15.928 134.96,15.928 C133.232,15.928 132.056,14.584 132.056,12.568 C132.056,10.576 133.232,9.208 134.96,9.208 L134.96,9.208 Z M152.72,5.872 C150.8,5.896 149.312,6.664 148.4,8.176 L148.4,6.064 L144.248,6.064 L144.248,19 L148.4,19 L148.4,12.16 C148.568,10.624 149.528,9.544 151.04,9.544 C152.432,9.544 153.32,10.48 153.32,11.992 L153.32,19 L157.448,19 L157.448,10.84 C157.448,7.816 155.576,5.872 152.72,5.872 L152.72,5.872 Z" id="Profit-Button" sketch:type="MSShapeGroup"></path>
        </g>
    </g>
</svg>